<svg width="14" height="14" viewBox="0 0 14 14" fill="none" xmlns="http://www.w3.org/2000/svg">
<path d="M9.17956 10.2718C8.05555 11.1256 6.64994 11.5201 5.24682 11.3754C3.8437 11.2308 2.54771 10.5578 1.62076 9.49259C0.69382 8.42734 0.205057 7.04923 0.253254 5.63679C0.30145 4.22435 0.883013 2.8829 1.88041 1.88357C2.8778 0.884243 4.21664 0.30155 5.62634 0.25326C7.03605 0.204969 8.41148 0.694682 9.47467 1.62343C10.5379 2.55217 11.2095 3.85068 11.3539 5.25653C11.4982 6.66237 11.1045 8.07071 10.2524 9.1969L12.9314 11.8811C13.228 12.1783 13.4678 12.4794 12.9314 12.956C12.395 13.4327 12.1551 13.2532 11.8586 12.956L9.17956 10.2718ZM5.81635 9.88343C6.89005 9.88343 7.91978 9.45607 8.679 8.69538C9.43822 7.93468 9.86475 6.90295 9.86475 5.82717C9.86475 4.75138 9.43822 3.71965 8.679 2.95895C7.91978 2.19826 6.89005 1.7709 5.81635 1.7709C4.74265 1.7709 3.71292 2.19826 2.9537 2.95895C2.19448 3.71965 1.76795 4.75138 1.76795 5.82717C1.76795 6.90295 2.19448 7.93468 2.9537 8.69538C3.71292 9.45607 4.74265 9.88343 5.81635 9.88343Z" fill="#7D7D7D"/>
</svg>
